<svg width="29" height="21" viewBox="0 0 29 21" fill="none" xmlns="http://www.w3.org/2000/svg">
<mask id="mask0_112_267" style="mask-type:luminance" maskUnits="userSpaceOnUse" x="0" y="0" width="29" height="21">
<path d="M0 5C0 2.23858 2.23858 0 5 0H23.283C26.0444 0 28.2829 2.23858 28.2829 5V16C28.2829 18.7614 26.0444 21 23.2829 21H5C2.23857 21 0 18.7614 0 16V5Z" fill="white"/>
</mask>
<g mask="url(#mask0_112_267)">
<path fill-rule="evenodd" clip-rule="evenodd" d="M-1.76953 0H30.0519V21H-1.76953V0Z" fill="#165D31"/>
<path fill-rule="evenodd" clip-rule="evenodd" d="M6.24757 5.95136C6.21442 6.44355 6.1647 7.30487 6.59147 7.39511C7.10111 7.44433 6.81936 6.54198 7.00581 6.37792C7.03896 6.29589 7.10111 6.29589 7.10525 6.39843V7.16542C7.10525 7.41152 7.27099 7.48534 7.39529 7.53456C7.52788 7.52636 7.61904 7.53456 7.66876 7.65761L7.73505 8.98241C7.73505 8.98241 8.04167 9.07265 8.05824 8.24003C8.07067 7.74784 7.9588 7.34179 8.02509 7.24745C8.02509 7.15312 8.14939 7.14902 8.23226 7.19413C8.36485 7.28437 8.42286 7.39921 8.63003 7.35819C8.94493 7.26796 9.13553 7.1162 9.13967 6.87831C9.13345 6.64453 9.08431 6.41382 8.99465 6.19745C9.01122 6.15644 8.93664 6.04569 8.95322 6.00468C9.00708 6.09491 9.09409 6.08671 9.11067 6.00468C9.0568 5.83241 8.97393 5.66425 8.84134 5.59452C8.72947 5.49609 8.56374 5.51249 8.50987 5.71757C8.47672 5.95136 8.59274 6.22616 8.76262 6.45585C8.79991 6.54198 8.84963 6.68964 8.82891 6.82089C8.73776 6.87421 8.6466 6.8496 8.56788 6.77167C8.56788 6.77167 8.31927 6.5871 8.31927 6.54198C8.38557 6.12362 8.3317 6.07441 8.29441 5.95546C8.26955 5.7955 8.19083 5.74218 8.12868 5.63554C8.06653 5.56991 7.98366 5.56991 7.94222 5.63554C7.83035 5.82421 7.88422 6.23027 7.96294 6.41484C8.02095 6.583 8.10796 6.68964 8.06653 6.68964C8.03338 6.78398 7.96294 6.75937 7.90908 6.64863C7.84844 6.41557 7.81918 6.1756 7.82206 5.93495C7.80135 5.74628 7.77649 5.34433 7.64804 5.23769C7.57346 5.13925 7.46159 5.18847 7.42015 5.2787C7.40921 5.46194 7.41337 5.64575 7.43258 5.82831C7.51545 6.13183 7.54446 6.40253 7.58589 6.71015C7.59832 7.12441 7.34557 6.89062 7.358 6.68144C7.41236 6.41846 7.40812 6.14692 7.34557 5.88573C7.30414 5.77909 7.25856 5.75448 7.15497 5.77089C7.07625 5.77089 6.87322 5.98827 6.81521 6.35741C6.81521 6.35741 6.76549 6.54609 6.74478 6.71425C6.71577 6.90292 6.59147 7.04237 6.50031 6.68964C6.42573 6.43124 6.37601 5.8037 6.25171 5.95136H6.24757Z" fill="white"/>
<path fill-rule="evenodd" clip-rule="evenodd" d="M7.63644 7.96525L6.31055 8.59689C6.32298 8.29748 6.9362 7.76017 7.35883 7.75607C7.62815 7.76017 7.56186 7.85861 7.6323 7.96525H7.63644Z" fill="white"/>
<path fill-rule="evenodd" clip-rule="evenodd" d="M7.39976 8.3754C6.70366 10.1596 9.03641 10.4098 9.29744 8.44923C9.3223 8.3672 9.42174 8.28927 9.43832 8.42052C9.38445 10.1965 7.63179 10.3154 7.33346 9.75762C7.26328 9.56569 7.2282 9.36291 7.22988 9.1588C7.18844 8.81016 7.00199 8.94552 6.97298 9.29005C6.94398 9.48282 6.95227 9.53614 6.95227 9.72071C7.04342 11.1234 9.30158 10.5205 9.67035 9.36387C9.86509 8.72403 9.6372 8.25235 9.74079 8.25235C9.96453 8.49024 10.2794 8.28516 10.3499 8.20313C10.3789 8.16212 10.4535 8.13341 10.5032 8.18673C10.6772 8.30977 10.9838 8.25235 11.0501 8.03497C11.0874 7.81759 11.1164 7.5961 11.1247 7.37052C10.9797 7.41153 10.8761 7.44024 10.8637 7.50177L10.8346 7.69044C10.8222 7.75196 10.7021 7.75196 10.6938 7.67403C10.6399 7.42794 10.4162 7.39923 10.2794 7.77657C10.1924 7.8504 10.0267 7.8668 10.0101 7.75606C10.0308 7.50177 9.92724 7.46895 9.72007 7.5879L9.52119 6.10313C9.60405 6.10313 9.68692 6.16466 9.76565 6.06622C9.68278 5.79962 9.49632 5.25821 9.39274 5.21719C9.34716 5.15977 9.30573 5.19669 9.23943 5.21309C9.1317 5.24591 9.03226 5.33614 9.06541 5.51661C9.18971 6.2877 9.27258 6.87423 9.40103 7.64942C9.42174 7.73555 9.34716 7.8545 9.24772 7.8422C9.08198 7.73145 9.04055 7.50587 8.75051 7.51407C8.54334 7.51407 8.31131 7.73966 8.2823 7.95294C8.24501 8.1252 8.23258 8.30977 8.2823 8.45743C8.42732 8.62969 8.60135 8.61329 8.75465 8.57638C8.87896 8.52305 8.98254 8.40001 9.02812 8.42872C9.05712 8.46563 9.03226 8.87579 8.43561 9.18751C8.07513 9.35157 7.78509 9.38438 7.63179 9.09317C7.53649 8.9086 7.64007 8.21544 7.39976 8.3754Z" fill="white"/>
<path fill-rule="evenodd" clip-rule="evenodd" d="M10.3705 6.56252C10.5072 6.5133 11.1701 5.75861 11.1701 5.75861L11.0707 5.67658C11.0334 5.64787 11.0376 5.61505 11.0707 5.58634C11.2364 5.48791 11.1826 5.28283 11.0997 5.18439C11.0434 5.15724 10.9816 5.14348 10.919 5.14419C10.8564 5.1449 10.7948 5.16007 10.7392 5.18849C10.6232 5.29923 10.5984 5.4756 10.6895 5.58224C10.7765 5.62326 10.8635 5.71349 10.8055 5.76271C10.5321 6.04982 9.79039 6.54611 9.8774 6.56252C9.89397 6.58713 10.3539 6.58713 10.3663 6.56252H10.3705ZM6.35135 9.22853C6.10275 9.62228 6.08203 10.2088 6.21876 10.3852C6.29334 10.4672 6.4135 10.5041 6.50051 10.4754C6.65796 10.4098 6.7284 10.094 6.69111 9.98322C6.63725 9.90119 6.59581 9.88888 6.54195 9.95451C6.43422 10.176 6.38864 10.0242 6.37621 9.90119C6.36434 9.6928 6.37545 9.48375 6.40936 9.27775C6.43836 9.10548 6.40936 9.1547 6.35135 9.22853ZM17.0041 8.60099C16.7638 8.08419 16.4281 7.5756 16.3246 7.38283C16.0017 6.87753 15.6589 6.38497 15.297 5.90627C15.0401 5.60275 15.7196 6.03341 15.2141 5.42638L14.8454 5.11877C14.7625 5.06134 14.5636 4.9547 14.5305 5.12697C14.5139 5.28283 14.5222 5.36486 14.547 5.49201C14.5677 5.57404 14.692 5.71759 14.7542 5.79962C15.6037 6.91339 16.3497 8.10083 16.9834 9.34748C17.0911 9.29416 17.0662 8.68712 17.0041 8.60099Z" fill="white"/>
<path fill-rule="evenodd" clip-rule="evenodd" d="M15.9474 10.3154C15.8976 10.3688 16.0634 10.5943 16.2788 10.5943C16.6352 10.5533 16.9501 10.3565 17.2401 9.83146C17.358 9.65681 17.4331 9.45741 17.4597 9.24903C17.4948 8.25334 17.4142 7.25696 17.2194 6.2795C17.207 6.19747 17.2194 6.09903 17.2277 6.07442C17.2525 6.04571 17.3313 6.07442 17.3727 6.0047C17.4348 5.94317 17.207 5.43048 17.0827 5.23771C17.0412 5.14747 17.0205 5.09005 16.9459 5.24591C16.8559 5.41789 16.8131 5.61022 16.8216 5.80372C16.9915 6.97267 17.0454 7.99396 17.1531 9.1629C17.1655 9.27774 17.1489 9.44181 17.0702 9.50743C16.7576 9.85202 16.3749 10.1274 15.9474 10.3154ZM20.7744 10.3113C20.5175 10.459 20.5175 10.6272 20.7247 10.6313C21.081 10.5902 21.5037 10.5615 21.7937 10.1268C21.8962 9.92199 21.9554 9.6987 21.9677 9.47052C22.0199 8.49016 21.9545 7.50713 21.773 6.542C21.7647 6.45997 21.7274 6.2672 21.7398 6.24259C21.7647 6.18517 21.8807 6.24669 21.9222 6.18106C21.9802 6.11954 21.6197 5.66017 21.4912 5.46329C21.4498 5.37306 21.4332 5.31564 21.3545 5.47149C21.2711 5.64506 21.245 5.84023 21.2799 6.02931C21.4705 7.30079 21.6114 8.25235 21.6404 9.37618C21.6238 9.48282 21.6197 9.54024 21.57 9.6756C21.4581 9.81505 21.3338 9.99552 21.2178 10.0817C21.1018 10.1637 20.8532 10.2457 20.7744 10.3113Z" fill="white"/>
<path fill-rule="evenodd" clip-rule="evenodd" d="M20.9652 9.17521C20.9652 8.87579 20.9694 8.6215 20.9611 8.39591C20.9584 8.20486 20.9161 8.01639 20.8368 7.8422C20.7622 7.67404 20.8078 7.53868 20.7705 7.35822C20.7374 7.17775 20.7456 6.90704 20.6959 6.69786C20.6793 6.61583 20.6379 6.34923 20.6503 6.32052C20.6711 6.2631 20.7498 6.32052 20.7912 6.2549C20.8492 6.19337 20.584 5.51661 20.4515 5.32384C20.4059 5.23771 20.3147 5.26642 20.2111 5.40587C20.1076 5.50021 20.1448 5.70939 20.1863 5.91036C20.439 7.23517 20.6338 8.43693 20.5923 9.69611C20.5758 9.80275 20.9652 9.37618 20.9652 9.17521ZM19.0717 7.53458C18.9101 7.52638 18.5745 7.21876 18.4751 7.0424C18.4588 6.99929 18.4518 6.95328 18.4547 6.90735C18.4575 6.86142 18.4701 6.8166 18.4916 6.77579C18.5538 6.73478 18.6449 6.69376 18.7154 6.73478C18.7154 6.73478 18.7858 6.83322 18.7734 6.84552C18.8562 6.88654 18.8977 6.86603 18.906 6.82911C18.9101 6.76759 18.8811 6.73068 18.8811 6.66505C18.9184 6.47638 19.1297 6.44767 19.2126 6.56661C19.2706 6.64044 19.2954 6.7922 19.2996 6.89474C19.2996 6.94806 19.2167 6.88654 19.1629 6.89474C19.1173 6.91115 19.1049 6.96857 19.1007 7.01779C19.0924 7.15314 19.0758 7.37052 19.0717 7.53048V7.53458ZM16.0967 9.50333C16.1382 9.10138 16.0802 8.38361 16.076 8.14572C16.0539 7.53391 16.0027 6.92347 15.9227 6.31642C15.873 5.97189 16.0636 6.35333 16.0387 6.15236C15.9766 5.81193 15.786 5.57814 15.5581 5.27052C15.4876 5.16798 15.4876 5.14747 15.3758 5.29513C15.2515 5.56993 15.3592 5.76271 15.3924 5.98009C15.5539 6.68556 15.6492 7.33361 15.6948 7.97755C15.7425 8.64648 15.7481 9.31771 15.7114 9.98732C15.8357 9.99142 16.0263 9.79454 16.0967 9.50333Z" fill="white"/>
<path fill-rule="evenodd" clip-rule="evenodd" d="M21.5161 8.85939C21.2302 8.38361 20.8034 7.87502 20.6874 7.68224C20.3032 7.15112 19.8996 6.63398 19.4775 6.13185C19.1253 5.76271 19.6432 6.07033 19.4112 5.78322C19.2165 5.57404 19.1626 5.50431 18.9927 5.37716C18.9099 5.32384 18.8601 5.2213 18.827 5.39767C18.8138 5.55044 18.811 5.70391 18.8187 5.85705C18.8187 5.92677 18.8933 6.06213 18.9596 6.14416C19.8173 7.19005 20.7578 8.25646 21.5119 9.59767C21.6196 9.54435 21.5824 8.94142 21.5119 8.85939H21.5161Z" fill="white"/>
<path fill-rule="evenodd" clip-rule="evenodd" d="M8.61382 7.98576C8.59311 8.02267 8.54753 8.06779 8.5641 8.11291C8.59311 8.15392 8.62211 8.16623 8.67183 8.16623C8.71741 8.16623 8.7837 8.17853 8.79613 8.15392C8.821 8.12521 8.83757 8.07189 8.821 8.01857C8.77127 7.89552 8.63869 7.94474 8.61382 7.98576Z" fill="#165D31"/>
<path fill-rule="evenodd" clip-rule="evenodd" d="M18.2099 14.8682C18.5911 14.8846 18.8397 14.8887 19.1753 14.9256L19.5731 14.8846C20.0123 14.8435 20.0289 15.5039 20.0289 15.5039C20.0289 15.8935 19.8756 15.9141 19.6808 15.9551C19.5689 15.9715 19.5151 15.8894 19.4529 15.8074C19.3592 15.8371 19.2594 15.8428 19.1629 15.8238C19.0013 15.8156 18.8438 15.8156 18.6864 15.8033C18.5207 15.791 18.4295 15.8238 18.2596 15.8074C18.2265 15.8607 18.1768 15.9346 18.0773 15.9141C17.9944 15.9018 17.8909 15.668 17.9199 15.4834C17.982 15.3521 17.9613 15.3973 17.9613 15.3398C16.4034 15.2988 14.833 15.2291 13.3082 15.2496C12.1149 15.2537 10.9382 15.3029 9.75734 15.3521C9.12754 15.3439 8.6469 15.2455 8.31543 14.7656C8.34858 14.7656 9.92307 14.8518 10.383 14.823C11.2324 14.8148 12.0114 14.7451 12.8773 14.7205C14.5844 14.7492 16.2791 14.7492 17.9862 14.8682C17.8204 14.7574 17.8204 14.499 18.069 14.4334C18.0897 14.417 18.1022 14.5605 18.1395 14.5564C18.3425 14.5441 18.2513 14.8148 18.2099 14.8682ZM11.3484 5.54941C11.0915 6.27948 11.4976 7.08339 11.7793 7.00546C11.9865 7.08749 12.1108 6.70195 12.1937 6.28359C12.2558 6.16464 12.2973 6.15234 12.3263 6.21386C12.318 6.77167 12.3677 6.89882 12.5127 7.06698C12.8359 7.31308 13.1052 7.0998 13.1259 7.07929L13.3745 6.82909C13.4325 6.76757 13.5071 6.76757 13.5859 6.81679C13.6646 6.88652 13.6521 7.00546 13.8179 7.08749C13.9588 7.14491 14.2529 7.1039 14.3234 6.98495C14.4145 6.82499 14.4394 6.77167 14.4808 6.71425C14.5471 6.62812 14.659 6.66503 14.659 6.69374C14.6466 6.74296 14.5803 6.78808 14.6259 6.87831C14.7087 6.93573 14.7253 6.89882 14.7709 6.88652C14.9366 6.80448 15.0609 6.45175 15.0609 6.45175C15.0651 6.3205 14.9905 6.3287 14.9407 6.36152L14.8123 6.44765C14.7294 6.45995 14.5761 6.51327 14.4974 6.39433C14.4187 6.25488 14.4187 6.0539 14.3607 5.91034C14.3607 5.90214 14.2529 5.68476 14.3524 5.67245C14.4021 5.68066 14.5057 5.70937 14.5223 5.62323C14.572 5.5371 14.4145 5.29511 14.3027 5.17206C14.2074 5.06952 14.0748 5.05722 13.9463 5.16386C13.8552 5.24589 13.8676 5.33613 13.851 5.42226C13.8353 5.48398 13.8346 5.54852 13.849 5.61056C13.8634 5.6726 13.8925 5.73036 13.9339 5.77909C14.0251 5.95136 14.1866 6.17695 14.1328 6.49687C14.1328 6.49687 14.0375 6.64452 13.8717 6.62402C13.8013 6.61171 13.6894 6.583 13.6314 6.14003C13.5859 5.81191 13.6397 5.34433 13.4988 5.12695C13.445 4.99159 13.4077 4.86445 13.2834 5.09003C13.2502 5.18027 13.1052 5.31562 13.2088 5.59042C13.3068 5.83806 13.3355 6.10731 13.2917 6.36972C13.2295 6.45995 13.2171 6.48866 13.1384 6.5748C13.0306 6.69784 12.9105 6.66503 12.8193 6.61991C12.7365 6.56659 12.6702 6.53788 12.6287 6.35331C12.637 6.0662 12.6536 5.59452 12.5997 5.49609C12.521 5.34023 12.3925 5.39765 12.3387 5.44687C12.0922 5.71792 11.9272 6.05176 11.8622 6.41073C11.7876 6.64863 11.7089 6.5789 11.655 6.48456C11.5224 6.36152 11.51 5.38945 11.3484 5.54941Z" fill="white"/>
<path fill-rule="evenodd" clip-rule="evenodd" d="M12.128 7.14083C12.2481 7.0588 12.1943 7.00138 12.3683 7.17364C12.5929 7.56707 12.7233 8.00627 12.7495 8.45743C12.7412 8.56407 12.8158 8.6297 12.8531 8.60509C12.8696 8.359 13.4787 8.01446 14.0381 7.96525C14.121 7.94474 14.0795 7.78478 14.0919 7.70275C14.0588 7.39513 14.266 7.11622 14.556 7.09571C14.9538 7.15314 15.0864 7.36232 15.0947 7.67814C15.0491 8.29337 14.4027 8.39591 14.0422 8.44513C13.9884 8.46564 13.9635 8.49025 14.0422 8.51896L15.5587 8.52716L15.6374 8.56818C15.6457 8.60919 15.6126 8.57638 15.5546 8.67482C15.4711 8.81989 15.419 8.98048 15.4013 9.1465C14.9496 9.29415 14.4814 9.35157 14.0091 9.4131C13.8433 9.49513 13.7605 9.60587 13.7936 9.72892C13.8516 9.86427 14.2163 10.0037 14.2163 10.0078C14.2867 10.0488 14.3654 10.1514 14.1955 10.3606C13.458 10.3277 12.8821 10.016 12.6832 9.57716C12.6252 9.53204 12.5589 9.57716 12.5175 9.63458C12.2274 10.0037 11.9457 10.3318 11.4526 10.5123C11.1626 10.5861 10.8601 10.4672 10.7192 10.2785C10.6239 10.1678 10.6281 10.0488 10.5949 10.0242C10.4333 10.094 9.06599 10.6682 9.24001 10.3975C9.57148 10.0488 10.1516 9.78634 10.6571 9.44181C10.6943 9.32286 10.7606 8.92911 10.9595 8.80197C10.972 8.80197 10.9305 9.03165 10.9347 9.13009C10.9347 9.21212 10.9264 9.24083 10.943 9.22032C10.9802 9.19982 11.5935 8.71993 11.6473 8.57228C11.7053 8.49025 11.6598 8.27697 11.6598 8.26876C11.5437 7.97345 11.3822 7.94884 11.3241 7.80118C11.2703 7.60841 11.2951 7.38693 11.407 7.3213C11.5065 7.23517 11.6225 7.24337 11.7343 7.34181C11.8586 7.45255 11.9664 7.66993 11.9995 7.82989C11.9788 7.89142 11.8338 7.78888 11.7924 7.81759C11.8721 7.90831 11.9251 8.01898 11.9457 8.13751C12.0285 8.47384 12.0037 8.60509 11.9208 8.82247C11.6473 9.39259 11.2993 9.56075 10.9927 9.77404C10.9844 9.77404 10.9802 9.91759 11.0921 9.99552C11.1336 10.0365 11.2951 10.057 11.4816 9.99552C11.8799 9.77654 12.202 9.44339 12.4056 9.03986C12.4408 8.73279 12.4068 8.42183 12.3061 8.12931C12.186 7.8545 12.0451 7.46486 12.0451 7.45665C12.041 7.28439 12.0534 7.22696 12.128 7.14083ZM8.15858 5.55763C8.3326 5.63966 8.66408 5.60275 8.6475 5.32384L8.63922 5.19669C8.60607 5.11466 8.50663 5.13517 8.48591 5.2172C8.47762 5.24591 8.49834 5.29103 8.47348 5.30333C8.45691 5.31974 8.40304 5.31154 8.40304 5.23361C8.40304 5.209 8.38647 5.18439 8.37404 5.16798C8.36575 5.15978 8.35746 5.15978 8.33675 5.15978C8.31189 5.15978 8.31189 5.16388 8.29946 5.18439C8.29531 5.20489 8.28703 5.2254 8.28703 5.25001C8.28703 5.27872 8.27045 5.28693 8.25388 5.29103C8.22902 5.29103 8.23316 5.29103 8.21244 5.28282C8.20416 5.27052 8.19173 5.26642 8.19173 5.24181L8.1793 5.17618C8.17101 5.16388 8.15444 5.15568 8.13786 5.15157C8.04256 5.15157 8.03428 5.26232 8.04256 5.30333C8.03428 5.31154 8.03013 5.50431 8.15858 5.55763Z" fill="white"/>
<path fill-rule="evenodd" clip-rule="evenodd" d="M13.2749 7.69863C13.4489 7.78066 13.8674 7.73554 13.7638 7.46894L13.7556 7.33769C13.7183 7.25566 13.623 7.27617 13.6023 7.3623C13.594 7.38691 13.6147 7.43203 13.5857 7.44433C13.5732 7.46074 13.5152 7.45253 13.5194 7.37871C13.5194 7.3541 13.5028 7.32539 13.4904 7.30898C13.4779 7.30488 13.4738 7.30078 13.4489 7.30078C13.4282 7.30078 13.4282 7.30898 13.4158 7.32949C13.4075 7.35 13.4034 7.3705 13.4034 7.39511C13.3992 7.41972 13.3868 7.42793 13.3661 7.43613C13.3454 7.43613 13.3495 7.43613 13.3329 7.42382C13.3205 7.41152 13.3081 7.40742 13.3081 7.38691L13.2956 7.32128C13.2874 7.30898 13.2708 7.30078 13.2542 7.29667C13.1589 7.29667 13.1506 7.40332 13.1548 7.44433C13.1506 7.45253 13.1465 7.64941 13.2791 7.69863H13.2749ZM16.2582 6.81269C16.4322 6.89472 16.7595 6.85781 16.7471 6.583L16.7388 6.45175C16.7015 6.36972 16.6062 6.39023 16.5855 6.47226C16.5772 6.50097 16.5979 6.54609 16.5689 6.5625C16.5565 6.5748 16.4985 6.5666 16.5026 6.48867C16.5026 6.46406 16.4861 6.43945 16.4736 6.42304C16.4612 6.41484 16.4571 6.41484 16.4322 6.41484C16.4115 6.41484 16.4115 6.42304 16.3991 6.44355L16.3866 6.50507C16.3825 6.53378 16.3701 6.54609 16.3493 6.54609C16.3286 6.54609 16.3328 6.54609 16.3162 6.53789C16.3038 6.52558 16.2913 6.52148 16.2913 6.50097C16.2913 6.48046 16.2872 6.44765 16.2789 6.43125C16.2706 6.41894 16.254 6.41484 16.2375 6.41074C16.1422 6.41074 16.1339 6.51738 16.138 6.55839C16.1339 6.5666 16.1297 6.75937 16.2623 6.81269H16.2582ZM17.8037 9.03984C17.5012 9.38027 17.6338 9.94218 17.7042 10.0652C17.8037 10.2621 17.8824 10.3893 18.0771 10.4877C18.2553 10.6148 18.3962 10.5369 18.4708 10.4467C18.6489 10.2621 18.6531 9.79043 18.7359 9.70019C18.794 9.52793 18.9431 9.55664 19.0136 9.63457C19.0795 9.72717 19.1678 9.80191 19.2704 9.85195C19.4362 9.9955 19.6351 10.0242 19.8339 9.89296C19.9665 9.81503 20.0535 9.7207 20.1323 9.52793C20.2151 9.29824 20.1737 8.23183 20.153 7.60019L19.979 6.71835C19.979 6.71015 19.9583 6.3 19.9375 6.20566C19.9375 6.16464 19.9251 6.15234 19.9665 6.15644C20.0121 6.19746 20.0163 6.19746 20.0494 6.20976C20.0908 6.21796 20.1323 6.14003 20.1033 6.07441L19.6889 5.31152C19.6558 5.27871 19.6102 5.24589 19.5563 5.31972C19.5246 5.3482 19.4993 5.38304 19.4821 5.42193C19.465 5.46082 19.4564 5.50288 19.4569 5.54531C19.4693 5.72578 19.4983 5.91035 19.5108 6.09082L19.6765 7.01777C19.7304 7.67402 19.7428 8.21542 19.7967 8.87578C19.7884 9.15468 19.7014 9.39668 19.6185 9.43359C19.6185 9.43359 19.4942 9.50332 19.4113 9.42539C19.3492 9.40078 19.1047 9.01933 19.1047 9.01933C18.9804 8.90859 18.8975 8.9373 18.8105 9.01933C18.5619 9.25722 18.4542 9.69199 18.2843 9.9955C18.2429 10.0652 18.1186 10.1186 17.986 9.9914C17.6462 9.52793 17.8451 8.87168 17.8037 9.03984ZM16.3369 5.19668C16.4944 5.2582 16.6021 5.57402 16.5689 5.72988C16.5358 5.91445 16.4529 6.11953 16.3949 6.09492C16.3286 6.07031 16.4363 5.90625 16.3742 5.73398C16.341 5.61914 16.1256 5.41406 16.1505 5.35664C16.109 5.22949 16.2416 5.17207 16.3369 5.19257V5.19668Z" fill="white"/>
<path fill-rule="evenodd" clip-rule="evenodd" d="M18.3096 9.22851C18.3386 8.85116 18.2847 8.62147 18.2764 8.39999C18.2681 8.17851 18.0237 6.48866 17.974 6.3246C17.9118 6.00468 18.2101 6.28358 18.177 6.09491C18.0734 5.86522 17.8206 5.52479 17.7419 5.32382C17.6922 5.24179 17.7129 5.15975 17.6052 5.30331C17.5124 5.555 17.4798 5.82455 17.5099 6.09081C17.7668 7.41561 18.0278 8.51483 17.9864 9.77401C18.1107 9.77401 18.2474 9.49921 18.3096 9.22851ZM20.9779 5.72987C21.1229 5.7996 21.2058 6.19335 21.1892 6.30409C21.1602 6.50917 21.0857 6.73065 21.0318 6.70194C20.9696 6.67733 21.0442 6.39843 21.0152 6.31229C20.9821 6.18925 20.7873 5.96776 20.808 5.90214C20.7666 5.76268 20.8909 5.70526 20.9779 5.72987ZM10.3832 8.51483C10.52 8.56815 10.6028 8.85526 10.5904 8.93729C10.5572 9.08905 10.4868 9.25311 10.4329 9.22851C10.3791 9.2121 10.4454 9.00702 10.4205 8.9414C10.4081 8.78964 10.2175 8.70761 10.2216 8.64198C10.1885 8.51893 10.3045 8.49843 10.3874 8.51483H10.3832Z" fill="white"/>
<path fill-rule="evenodd" clip-rule="evenodd" d="M13.6814 8.94959C13.8554 8.95779 13.9425 9.09725 13.7809 9.15467C13.6151 9.20799 13.4618 9.25311 13.4577 9.48279C13.5198 9.81092 13.3748 9.69608 13.2919 9.65506C13.1925 9.58123 12.9107 9.40897 12.8693 9.03983C12.8652 8.95369 12.9356 8.87576 13.0475 8.87576C13.2132 8.92088 13.4618 8.92498 13.6814 8.94959Z" fill="#165D31"/>
<path fill-rule="evenodd" clip-rule="evenodd" d="M6.74086 5.10235C6.93974 5.15977 6.95217 5.45508 6.93974 5.54122C6.91074 5.69708 6.8403 5.86524 6.79058 5.84473C6.73257 5.82422 6.79058 5.61094 6.76157 5.54532C6.73257 5.45508 6.56269 5.28282 6.57926 5.2336C6.54197 5.13106 6.66213 5.08184 6.74086 5.10235ZM10.7144 6.48047C10.5569 6.56251 10.4989 6.8086 10.5942 6.95626C10.6854 7.0793 10.8263 7.03419 10.8428 7.03419C10.9961 7.05059 11.0873 6.75118 11.0873 6.75118C11.0873 6.75118 11.0914 6.66915 10.9133 6.82911C10.8346 6.84141 10.8304 6.8127 10.8097 6.77169C10.7907 6.6936 10.798 6.61152 10.8304 6.5379C10.8594 6.46407 10.8014 6.43126 10.7144 6.48047ZM11.8745 4.98751C11.7917 5.04083 11.6384 5.20079 11.6342 5.38126C11.6301 5.48379 11.6094 5.48379 11.6757 5.54532C11.7295 5.61915 11.7751 5.61504 11.8745 5.56172C11.8993 5.54628 11.9206 5.52591 11.937 5.50191C11.9534 5.4779 11.9646 5.45078 11.9698 5.42227C11.9947 5.30743 11.8455 5.47969 11.829 5.34844C11.7958 5.2254 11.8911 5.17618 11.9823 5.06133C11.9823 4.9793 11.9823 4.92598 11.8704 4.98751H11.8745ZM12.8027 5.15157C12.7661 5.30092 12.7439 5.45336 12.7364 5.60684C12.7115 5.72169 12.8607 5.7709 12.9228 5.62325C13.0223 5.35665 13.0223 5.2418 13.0306 5.13106C13.0016 4.95469 12.8814 4.95879 12.8027 5.15157ZM18.6863 8.117C18.7029 8.09649 19.515 7.52637 19.515 7.52637C19.5979 7.49766 19.5772 7.82169 19.5399 7.81758C19.288 8.05786 18.9983 8.25596 18.6822 8.40411C18.6407 8.43282 18.6035 8.18672 18.6822 8.117H18.6863ZM19.4197 8.10879C19.5647 8.17852 19.6227 8.59278 19.6062 8.70352C19.6062 8.92501 19.4694 9.09727 19.4114 9.07266C19.3534 9.04395 19.4197 8.79786 19.3907 8.71172C19.3576 8.58868 19.2374 8.36309 19.2581 8.29747C19.2167 8.15801 19.3327 8.08418 19.4239 8.10879H19.4197ZM14.6133 9.88887C14.6806 9.81121 14.7587 9.74353 14.8454 9.6879C14.9282 9.64688 15.0028 9.72071 14.9987 9.71661C15.0111 9.79864 14.949 9.86836 14.9697 9.97501C14.9863 10.016 14.9987 10.0652 15.0774 10.0488C15.2059 9.94629 15.326 9.93809 15.4503 9.93399C15.5539 9.93809 15.558 10.1063 15.4917 10.1063C15.2556 10.1555 15.152 10.2211 14.9821 10.2826C14.8992 10.3318 14.8329 10.2703 14.8329 10.2662C14.8329 10.2621 14.7874 10.2211 14.8164 10.1145C14.8247 10.0324 14.7915 9.98321 14.7169 9.99141C14.6672 10.0242 14.6175 10.0406 14.5926 9.97911C14.5802 9.93809 14.5761 9.91348 14.6133 9.88887ZM20.2732 10.1104C20.3064 10.1514 20.3313 10.1924 20.2691 10.2662L20.1158 10.3975C20.0909 10.4385 20.0744 10.5123 20.1572 10.5328C20.3064 10.5738 20.6544 10.3482 20.6544 10.3441C20.7125 10.3031 20.6959 10.2211 20.6876 10.2211C20.6544 10.1842 20.5799 10.2088 20.5301 10.2006C20.5053 10.2006 20.4266 10.1924 20.4638 10.1186C20.4917 10.0823 20.514 10.0422 20.5301 9.99961C20.5509 9.9504 20.5301 9.91758 20.4473 9.88887C20.3603 9.87247 20.323 9.88067 20.2277 9.88887C20.178 9.89708 20.1614 9.92168 20.1489 9.98321C20.1531 10.0775 20.2111 10.0734 20.2732 10.1063V10.1104Z" fill="white"/>
<path fill-rule="evenodd" clip-rule="evenodd" d="M14.6421 7.78067C14.6214 7.82169 14.5468 7.82169 14.4763 7.78067C14.4059 7.73965 14.3645 7.67403 14.3893 7.63712C14.4142 7.6002 14.4846 7.6002 14.5551 7.63712C14.6255 7.67403 14.6628 7.74376 14.6421 7.78067ZM10.9544 5.58223C10.913 5.59454 10.855 5.55762 10.8301 5.5002C10.8053 5.44278 10.8177 5.39356 10.8591 5.38126C10.9006 5.36895 10.9544 5.40997 10.9834 5.46329C11.0124 5.51661 10.9959 5.57403 10.9503 5.58633L10.9544 5.58223Z" fill="#165D31"/>
<path fill-rule="evenodd" clip-rule="evenodd" d="M18.2514 15.3809C18.6409 15.3973 19.0055 15.3809 19.3908 15.4014C19.4612 15.4629 19.4115 15.6064 19.3659 15.5982L19.0428 15.5859C19.0386 15.4629 18.7237 15.4834 18.732 15.59C18.5621 15.6105 18.4088 15.5859 18.2348 15.5777C18.1851 15.5162 18.1934 15.4055 18.2514 15.3809Z" fill="#165D31"/>
</g>
</svg>
