<svg width="82" height="83" viewBox="0 0 82 83" fill="none" xmlns="http://www.w3.org/2000/svg">
<path fill-rule="evenodd" clip-rule="evenodd" d="M17.083 26.6877V55.8182C17.0884 57.3983 17.7215 58.9114 18.843 60.0244C19.9644 61.1375 21.4822 61.7593 23.0622 61.753H58.9372C60.5172 61.7593 62.035 61.1375 63.1564 60.0244C64.2778 58.9114 64.9109 57.3983 64.9163 55.8182V26.6877C64.9109 25.1077 64.2778 23.5946 63.1564 22.4815C62.035 21.3684 60.5172 20.7466 58.9372 20.753H23.0622C21.4822 20.7466 19.9644 21.3684 18.843 22.4815C17.7215 23.5946 17.0884 25.1077 17.083 26.6877Z" stroke="black" stroke-width="1.5" stroke-linecap="round" stroke-linejoin="round"/>
<path d="M64.9163 35.5283C65.3306 35.5283 65.6663 35.1925 65.6663 34.7783C65.6663 34.3641 65.3306 34.0283 64.9163 34.0283V35.5283ZM17.083 34.0283C16.6688 34.0283 16.333 34.3641 16.333 34.7783C16.333 35.1925 16.6688 35.5283 17.083 35.5283V34.0283ZM43.9893 46.0482C44.4035 46.0482 44.7393 45.7125 44.7393 45.2982C44.7393 44.884 44.4035 44.5482 43.9893 44.5482V46.0482ZM17.083 44.5482C16.6688 44.5482 16.333 44.884 16.333 45.2982C16.333 45.7125 16.6688 46.0482 17.083 46.0482V44.5482ZM55.9476 46.0482C56.3618 46.0482 56.6976 45.7125 56.6976 45.2982C56.6976 44.884 56.3618 44.5482 55.9476 44.5482V46.0482ZM52.958 44.5482C52.5438 44.5482 52.208 44.884 52.208 45.2982C52.208 45.7125 52.5438 46.0482 52.958 46.0482V44.5482ZM64.9163 34.0283H17.083V35.5283H64.9163V34.0283ZM43.9893 44.5482H17.083V46.0482H43.9893V44.5482ZM55.9476 44.5482H52.958V46.0482H55.9476V44.5482Z" fill="black"/>
</svg>
