<svg width="21" height="20" viewBox="0 0 21 20" fill="none" xmlns="http://www.w3.org/2000/svg">
<path fill-rule="evenodd" clip-rule="evenodd" d="M11.25 18.7501C15.1446 18.7493 18.5699 16.1745 19.653 12.4335C20.7361 8.69247 19.2163 4.68592 15.9245 2.60449C12.6327 0.523067 8.36149 0.867849 5.44619 3.45032C2.53089 6.0328 1.67337 10.2312 3.3425 13.7501L1.25 18.7501L6.74 17.5001C8.10112 18.3204 9.66077 18.7527 11.25 18.7501Z" stroke="white" stroke-width="1.5" stroke-linecap="round" stroke-linejoin="round"/>
<path fill-rule="evenodd" clip-rule="evenodd" d="M8.80148 8.83245C8.08984 8.82625 7.51738 8.24542 7.52151 7.53377C7.52563 6.82211 8.10479 6.24796 8.81645 6.25001C9.52812 6.25205 10.104 6.82953 10.104 7.5412C10.1005 8.2573 9.51759 8.83522 8.80148 8.83245V8.83245Z" stroke="white" stroke-width="1.5" stroke-linecap="round" stroke-linejoin="round"/>
<path fill-rule="evenodd" clip-rule="evenodd" d="M12.3965 12.3977C12.3925 12.9248 12.7068 13.4023 13.1926 13.6069C13.6783 13.8115 14.2395 13.7029 14.6139 13.3318C14.9882 12.9607 15.1017 12.4005 14.9013 11.9129C14.7008 11.4254 14.2261 11.107 13.699 11.1065C12.9829 11.1037 12.4 11.6816 12.3965 12.3977V12.3977Z" stroke="white" stroke-width="1.5" stroke-linecap="round" stroke-linejoin="round"/>
<path d="M7.50006 7.5415C7.48256 11.8753 11.6251 14.1628 13.6988 13.689" stroke="white" stroke-width="1.5" stroke-linecap="round"/>
</svg>
