<svg width="9" height="20" viewBox="0 0 9 20" fill="none" xmlns="http://www.w3.org/2000/svg">
<path d="M3.25 18.75C3.25 19.1642 3.58579 19.5 4 19.5C4.41421 19.5 4.75 19.1642 4.75 18.75H3.25ZM4.75 8.75C4.75 8.33579 4.41421 8 4 8C3.58579 8 3.25 8.33579 3.25 8.75H4.75ZM7.75 2C8.16421 2 8.5 1.66421 8.5 1.25C8.5 0.835786 8.16421 0.5 7.75 0.5V2ZM4 5H3.25H4ZM3.25 8.75C3.25 9.16421 3.58579 9.5 4 9.5C4.41421 9.5 4.75 9.16421 4.75 8.75H3.25ZM4 8C3.58579 8 3.25 8.33579 3.25 8.75C3.25 9.16421 3.58579 9.5 4 9.5V8ZM6.5 9.5C6.91421 9.5 7.25 9.16421 7.25 8.75C7.25 8.33579 6.91421 8 6.5 8V9.5ZM4 9.5C4.41421 9.5 4.75 9.16421 4.75 8.75C4.75 8.33579 4.41421 8 4 8V9.5ZM1.5 8C1.08579 8 0.75 8.33579 0.75 8.75C0.75 9.16421 1.08579 9.5 1.5 9.5V8ZM4.75 18.75V8.75H3.25V18.75H4.75ZM7.75 0.5C5.26472 0.5 3.25 2.51472 3.25 5H4.75C4.75 3.34315 6.09315 2 7.75 2V0.5ZM3.25 5V8.75H4.75V5H3.25ZM4 9.5H6.5V8H4V9.5ZM4 8H1.5V9.5H4V8Z" fill="white"/>
</svg>
