<svg width="20" height="20" viewBox="0 0 20 20" fill="none" xmlns="http://www.w3.org/2000/svg">
<path fill-rule="evenodd" clip-rule="evenodd" d="M13.75 1.25H6.25C3.48858 1.25 1.25 3.48858 1.25 6.25V13.75C1.25 16.5114 3.48858 18.75 6.25 18.75H13.75C16.5114 18.75 18.75 16.5114 18.75 13.75V6.25C18.75 3.48858 16.5114 1.25 13.75 1.25Z" stroke="white" stroke-width="1.5" stroke-linecap="round" stroke-linejoin="round"/>
<path fill-rule="evenodd" clip-rule="evenodd" d="M10 13.75C7.92893 13.75 6.25 12.0711 6.25 10C6.25 7.92893 7.92893 6.25 10 6.25C12.0711 6.25 13.75 7.92893 13.75 10C13.75 10.9946 13.3549 11.9484 12.6517 12.6517C11.9484 13.3549 10.9946 13.75 10 13.75Z" stroke="white" stroke-width="1.5" stroke-linecap="round" stroke-linejoin="round"/>
<rect x="13.75" y="6.25" width="2.5" height="2.5" rx="1" transform="rotate(-90 13.75 6.25)" fill="white"/>
<rect x="14.375" y="5.625" width="1.25" height="1.25" rx="0.5" transform="rotate(-90 14.375 5.625)" stroke="white" stroke-linecap="round"/>
</svg>
