<svg width="18" height="14" viewBox="0 0 18 14" fill="none" xmlns="http://www.w3.org/2000/svg">
<path fill-rule="evenodd" clip-rule="evenodd" d="M8.9994 5.03442C7.89107 5.03442 6.99023 5.93609 6.99023 7.04442C6.99023 8.15192 7.89107 9.05276 8.9994 9.05276C10.1077 9.05276 11.0094 8.15192 11.0094 7.04442C11.0094 5.93609 10.1077 5.03442 8.9994 5.03442ZM8.9994 10.3028C7.2019 10.3028 5.74023 8.84109 5.74023 7.04442C5.74023 5.24692 7.2019 3.78442 8.9994 3.78442C10.7969 3.78442 12.2594 5.24692 12.2594 7.04442C12.2594 8.84109 10.7969 10.3028 8.9994 10.3028Z" fill="#778399"/>
<mask id="mask0_286_1863" style="mask-type:alpha" maskUnits="userSpaceOnUse" x="0" y="0" width="18" height="14">
<path fill-rule="evenodd" clip-rule="evenodd" d="M0.666992 0.333496H17.3335V13.7543H0.666992V0.333496Z" fill="white"/>
</mask>
<g mask="url(#mask0_286_1863)">
<path fill-rule="evenodd" clip-rule="evenodd" d="M1.97512 7.04376C3.52512 10.4679 6.13595 12.5038 9.00012 12.5046C11.8643 12.5038 14.4751 10.4679 16.0251 7.04376C14.4751 3.62042 11.8643 1.58459 9.00012 1.58375C6.13678 1.58459 3.52512 3.62042 1.97512 7.04376ZM9.00178 13.7546H8.99845H8.99762C5.55095 13.7521 2.45595 11.3363 0.717617 7.29042C0.650117 7.13292 0.650117 6.95459 0.717617 6.79709C2.45595 2.75209 5.55178 0.336255 8.99762 0.333755C8.99928 0.332922 8.99928 0.332922 9.00012 0.333755C9.00178 0.332922 9.00178 0.332922 9.00262 0.333755C12.4493 0.336255 15.5443 2.75209 17.2826 6.79709C17.351 6.95459 17.351 7.13292 17.2826 7.29042C15.5451 11.3363 12.4493 13.7521 9.00262 13.7546H9.00178Z" fill="#778399"/>
</g>
</svg>
