<svg width="28" height="20" viewBox="0 0 28 20" fill="none" xmlns="http://www.w3.org/2000/svg">
<path fill-rule="evenodd" clip-rule="evenodd" d="M21.085 18.7535C23.9655 18.8584 26.3875 16.6124 26.5 13.7323V6.27478C26.3875 3.39461 23.9655 1.14866 21.085 1.25353H6.915C4.03454 1.14866 1.61248 3.39461 1.5 6.27478V13.7323C1.61248 16.6124 4.03454 18.8584 6.915 18.7535H21.085Z" stroke="white" stroke-width="1.5" stroke-linecap="round" stroke-linejoin="round"/>
<path fill-rule="evenodd" clip-rule="evenodd" d="M13.385 6.47236L17.3362 9.15736C17.5922 9.30682 17.7496 9.58095 17.7496 9.87736C17.7496 10.1738 17.5922 10.4479 17.3362 10.5974L13.385 13.5349C12.635 14.0436 11.5 13.6099 11.5 12.8149V7.18986C11.5 6.39861 12.6362 5.96361 13.385 6.47236Z" stroke="white" stroke-width="1.5" stroke-linecap="round" stroke-linejoin="round"/>
</svg>
