<svg width="70" height="61" viewBox="0 0 70 61" fill="none" xmlns="http://www.w3.org/2000/svg">
<path fill-rule="evenodd" clip-rule="evenodd" d="M1.66699 40.5112V32.4945C1.75568 28.8701 4.76325 26.0023 8.38783 26.0862H11.142C13.509 18.7637 20.2565 13.7458 27.9503 13.5862H42.0503C49.7442 13.7458 56.4916 18.7637 58.8587 26.0862C59.6179 28.2656 60.0039 30.5575 60.0003 32.8653V40.1403C60.3542 50.416 52.325 59.0397 42.0503 59.4195H27.9503C20.2565 59.2599 13.509 54.242 11.142 46.9195H8.38783C4.76325 47.0034 1.75568 44.1356 1.66699 40.5112Z" stroke="black" stroke-width="1.5" stroke-linecap="round" stroke-linejoin="round"/>
<path fill-rule="evenodd" clip-rule="evenodd" d="M43.3337 32.3363C43.3337 36.9386 39.6027 40.6696 35.0003 40.6696C30.398 40.6696 26.667 36.9386 26.667 32.3363C26.667 27.7339 30.398 24.0029 35.0003 24.0029C39.6027 24.0029 43.3337 27.7339 43.3337 32.3363Z" stroke="black" stroke-width="1.5" stroke-linecap="round" stroke-linejoin="round"/>
<path d="M35.75 1.08618C35.75 0.671968 35.4142 0.336182 35 0.336182C34.5858 0.336182 34.25 0.671968 34.25 1.08618H35.75ZM34.25 13.5862C34.25 14.0004 34.5858 14.3362 35 14.3362C35.4142 14.3362 35.75 14.0004 35.75 13.5862H34.25ZM10.4334 47.1663C10.5697 47.5574 10.9973 47.764 11.3884 47.6278C11.7796 47.4915 11.9862 47.0639 11.8499 46.6728L10.4334 47.1663ZM10 40.1404L10.75 40.1415V40.1404H10ZM10 32.8653H10.75L10.75 32.8642L10 32.8653ZM11.8499 26.3329C11.9862 25.9418 11.7796 25.5142 11.3884 25.3779C10.9973 25.2417 10.5697 25.4483 10.4334 25.8394L11.8499 26.3329ZM58.8584 25.3362C58.4441 25.3362 58.1084 25.672 58.1084 26.0862C58.1084 26.5004 58.4441 26.8362 58.8584 26.8362V25.3362ZM61.6125 26.0862V26.8362C61.6183 26.8362 61.6241 26.8361 61.6299 26.836L61.6125 26.0862ZM68.3334 32.4945H69.0834C69.0834 32.4884 69.0833 32.4823 69.0831 32.4762L68.3334 32.4945ZM68.3334 40.5112L69.0831 40.5295C69.0833 40.5234 69.0834 40.5173 69.0834 40.5112H68.3334ZM61.6125 46.9195L61.6299 46.1697C61.6241 46.1696 61.6183 46.1695 61.6125 46.1695V46.9195ZM58.8584 46.1695C58.4441 46.1695 58.1084 46.5053 58.1084 46.9195C58.1084 47.3337 58.4441 47.6695 58.8584 47.6695V46.1695ZM26.6667 48.2528C26.2525 48.2528 25.9167 48.5886 25.9167 49.0028C25.9167 49.4171 26.2525 49.7528 26.6667 49.7528V48.2528ZM43.3334 49.7528C43.7476 49.7528 44.0834 49.4171 44.0834 49.0028C44.0834 48.5886 43.7476 48.2528 43.3334 48.2528V49.7528ZM34.25 1.08618V13.5862H35.75V1.08618H34.25ZM11.8499 46.6728C11.1184 44.5731 10.7466 42.365 10.75 40.1415L9.25003 40.1392C9.2463 42.5314 9.64639 44.9072 10.4334 47.1663L11.8499 46.6728ZM10.75 40.1404V32.8653H9.25002V40.1404H10.75ZM10.75 32.8642C10.7466 30.6407 11.1184 28.4326 11.8499 26.3329L10.4334 25.8394C9.64639 28.0985 9.2463 30.4743 9.25003 32.8665L10.75 32.8642ZM58.8584 26.8362H61.6125V25.3362H58.8584V26.8362ZM61.6299 26.836C64.8407 26.7617 67.505 29.3021 67.5836 32.5129L69.0831 32.4762C68.9843 28.438 65.6335 25.243 61.5952 25.3364L61.6299 26.836ZM67.5834 32.4945V40.5112H69.0834V32.4945H67.5834ZM67.5836 40.4928C67.505 43.7036 64.8407 46.244 61.6299 46.1697L61.5952 47.6693C65.6335 47.7627 68.9843 44.5677 69.0831 40.5295L67.5836 40.4928ZM61.6125 46.1695H58.8584V47.6695H61.6125V46.1695ZM26.6667 49.7528H43.3334V48.2528H26.6667V49.7528Z" fill="black"/>
</svg>
