<svg width="90" height="91" viewBox="0 0 90 91" fill="none" xmlns="http://www.w3.org/2000/svg">
<path fill-rule="evenodd" clip-rule="evenodd" d="M18.75 28.0996C19.1371 33.555 21.0312 38.7959 24.2212 43.2383C25.2612 44.5563 26.5088 45.6962 27.915 46.6133C29.3503 47.4327 30.9135 48.0045 32.5388 48.3046C37.7468 48.9979 43.0428 48.0985 47.73 45.7246C47.3467 40.2643 45.4538 35.0179 42.2625 30.5708C41.2226 29.2528 39.975 28.1129 38.5687 27.1958C37.1327 26.3803 35.5696 25.8124 33.945 25.5158C28.7353 24.8228 23.4379 25.7236 18.75 28.0996Z" stroke="black" stroke-width="1.5" stroke-linecap="round" stroke-linejoin="round"/>
<path d="M48.4834 18.5372C48.4834 18.1229 48.1476 17.7872 47.7334 17.7872C47.3192 17.7872 46.9834 18.1229 46.9834 18.5372H48.4834ZM46.9834 33.8372C46.9834 34.2514 47.3192 34.5872 47.7334 34.5872C48.1476 34.5872 48.4834 34.2514 48.4834 33.8372H46.9834ZM46.9834 75.3047C46.9834 75.7189 47.3192 76.0547 47.7334 76.0547C48.1476 76.0547 48.4834 75.7189 48.4834 75.3047H46.9834ZM48.4834 33.8372C48.4834 33.4229 48.1476 33.0872 47.7334 33.0872C47.3192 33.0872 46.9834 33.4229 46.9834 33.8372H48.4834ZM47.827 39.4943C47.416 39.4426 47.041 39.7338 46.9893 40.1448C46.9376 40.5558 47.2288 40.9309 47.6398 40.9825L47.827 39.4943ZM62.0996 37.8047L62.4331 38.4764C62.4411 38.4725 62.449 38.4684 62.4569 38.4641L62.0996 37.8047ZM66.0296 34.8572L66.5627 35.3847C66.5718 35.3756 66.5806 35.3662 66.5892 35.3566L66.0296 34.8572ZM68.8084 30.6797L69.4853 31.0026C69.4887 30.9954 69.4921 30.9881 69.4953 30.9807L68.8084 30.6797ZM71.1146 15.4472L71.8599 15.3629C71.821 15.0186 71.5513 14.7458 71.2075 14.7029L71.1146 15.4472ZM56.7484 17.8959L56.4142 17.2245C56.4065 17.2283 56.3988 17.2323 56.3912 17.2364L56.7484 17.8959ZM52.8184 20.8434L52.2853 20.3158C52.2764 20.3248 52.2678 20.334 52.2594 20.3434L52.8184 20.8434ZM50.0396 25.0097L49.3632 24.6856L49.3597 24.6931L50.0396 25.0097ZM46.9892 33.7813C46.9584 34.1943 47.2682 34.5542 47.6812 34.5851C48.0943 34.6159 48.4542 34.3061 48.4851 33.8931L46.9892 33.7813ZM46.9834 18.5372V33.8372H48.4834V18.5372H46.9834ZM48.4834 75.3047V33.8372H46.9834V75.3047H48.4834ZM47.6398 40.9825C52.7101 41.6203 57.8558 40.7485 62.4331 38.4764L61.7662 37.1329C57.4531 39.2738 52.6045 40.0952 47.827 39.4943L47.6398 40.9825ZM62.4569 38.4641C63.9693 37.6449 65.3527 36.6073 66.5627 35.3847L65.4966 34.3296C64.3903 35.4474 63.1253 36.3961 61.7424 37.1452L62.4569 38.4641ZM66.5892 35.3566C67.7558 34.0497 68.7309 32.5837 69.4853 31.0026L68.1315 30.3567C67.4382 31.8096 66.5422 33.1567 65.4701 34.3577L66.5892 35.3566ZM69.4953 30.9807C71.646 26.0741 72.4617 20.6863 71.8599 15.3629L70.3694 15.5314C70.9415 20.5921 70.166 25.7141 68.1215 30.3786L69.4953 30.9807ZM71.2075 14.7029C66.1357 14.07 60.9899 14.9471 56.4142 17.2245L57.0826 18.5673C61.3941 16.4214 66.2428 15.595 71.0218 16.1914L71.2075 14.7029ZM56.3912 17.2364C54.8788 18.0557 53.4953 19.0933 52.2853 20.3158L53.3515 21.371C54.4578 20.2532 55.7228 19.3045 57.1056 18.5554L56.3912 17.2364ZM52.2594 20.3434C51.0937 21.6467 50.1186 23.1087 49.3632 24.6856L50.716 25.3337C51.4102 23.8845 52.3062 22.5411 53.3774 21.3434L52.2594 20.3434ZM49.3597 24.6931C48.0276 27.5546 47.2245 30.6337 46.9892 33.7813L48.4851 33.8931C48.7068 30.926 49.4639 28.0236 50.7196 25.3262L49.3597 24.6931Z" fill="black"/>
</svg>
