<svg width="92" height="93" viewBox="0 0 92 93" fill="none" xmlns="http://www.w3.org/2000/svg">
<path fill-rule="evenodd" clip-rule="evenodd" d="M19.167 46.2531V57.7531C19.167 68.3386 27.7482 76.9198 38.3337 76.9198H53.667C58.7503 76.9198 63.6254 74.9004 67.2199 71.306C70.8143 67.7115 72.8337 62.8364 72.8337 57.7531V46.2531C72.8388 41.1682 70.8211 36.2902 67.2255 32.6946C63.63 29.099 58.7519 27.0813 53.667 27.0864H38.3337C33.2488 27.0813 28.3707 29.099 24.7752 32.6946C21.1796 36.2902 19.1619 41.1682 19.167 46.2531V46.2531Z" stroke="black" stroke-width="1.5" stroke-linecap="round" stroke-linejoin="round"/>
<path d="M33.75 34.753C33.75 35.1672 34.0858 35.503 34.5 35.503C34.9142 35.503 35.25 35.1672 35.25 34.753H33.75ZM35.25 19.4197C35.25 19.0055 34.9142 18.6697 34.5 18.6697C34.0858 18.6697 33.75 19.0055 33.75 19.4197H35.25ZM56.75 34.753C56.75 35.1672 57.0858 35.503 57.5 35.503C57.9142 35.503 58.25 35.1672 58.25 34.753H56.75ZM58.25 19.4197C58.25 19.0055 57.9142 18.6697 57.5 18.6697C57.0858 18.6697 56.75 19.0055 56.75 19.4197H58.25ZM35.0303 53.3893C34.7374 53.0965 34.2626 53.0965 33.9697 53.3893C33.6768 53.6822 33.6768 54.1571 33.9697 54.45L35.0303 53.3893ZM42.1667 61.5863L41.6363 62.1167C41.9292 62.4096 42.4041 62.4096 42.697 62.1167L42.1667 61.5863ZM58.0303 46.7833C58.3232 46.4904 58.3232 46.0156 58.0303 45.7227C57.7374 45.4298 57.2626 45.4298 56.9697 45.7227L58.0303 46.7833ZM35.25 34.753V19.4197H33.75V34.753H35.25ZM58.25 34.753V19.4197H56.75V34.753H58.25ZM33.9697 54.45L41.6363 62.1167L42.697 61.056L35.0303 53.3893L33.9697 54.45ZM42.697 62.1167L58.0303 46.7833L56.9697 45.7227L41.6363 61.056L42.697 62.1167Z" fill="black"/>
</svg>
