<svg width="20" height="20" viewBox="0 0 20 20" fill="none" xmlns="http://www.w3.org/2000/svg">
<path d="M8.13381 11.9724C7.65464 11.4941 7.36298 10.8441 7.36298 10.1149C7.36298 8.65406 8.53964 7.47656 9.99964 7.47656C10.7221 7.47656 11.3871 7.76906 11.858 8.2474" stroke="#778399" stroke-width="1.5" stroke-linecap="round" stroke-linejoin="round"/>
<path d="M12.5873 10.5825C12.394 11.6575 11.5473 12.5059 10.4731 12.7009" stroke="#778399" stroke-width="1.5" stroke-linecap="round" stroke-linejoin="round"/>
<path d="M5.54549 14.5604C4.22299 13.522 3.10299 12.0054 2.29132 10.1145C3.11132 8.21535 4.23882 6.69035 5.56965 5.64369C6.89215 4.59702 8.41799 4.02869 9.99965 4.02869C11.5905 4.02869 13.1155 4.60535 14.4463 5.65952" stroke="#778399" stroke-width="1.5" stroke-linecap="round" stroke-linejoin="round"/>
<path d="M16.2063 7.49243C16.7796 8.2541 17.2838 9.13326 17.708 10.1141C16.0688 13.9116 13.1721 16.1991 9.99965 16.1991C9.28048 16.1991 8.57132 16.0824 7.88965 15.8549" stroke="#778399" stroke-width="1.5" stroke-linecap="round" stroke-linejoin="round"/>
<path d="M16.5725 3.54138L3.42749 16.6864" stroke="#778399" stroke-width="1.5" stroke-linecap="round" stroke-linejoin="round"/>
</svg>
