<svg width="100" height="101" viewBox="0 0 100 101" fill="none" xmlns="http://www.w3.org/2000/svg">
<path d="M41.6663 28.4737C42.0806 28.4737 42.4163 28.1379 42.4163 27.7237C42.4163 27.3095 42.0806 26.9737 41.6663 26.9737V28.4737ZM40.8663 27.7237L40.8529 28.4737H40.8663V27.7237ZM20.833 47.032L20.0831 47.0178C20.0831 47.0226 20.083 47.0273 20.083 47.032H20.833ZM20.833 53.4695H20.0829L20.0831 53.4835L20.833 53.4695ZM40.8663 72.782V72.0319L40.8529 72.0321L40.8663 72.782ZM49.9497 73.532C50.3639 73.532 50.6997 73.1962 50.6997 72.782C50.6997 72.3678 50.3639 72.032 49.9497 72.032V73.532ZM43.6562 65.6155C43.3595 65.3265 42.8846 65.3329 42.5957 65.6296C42.3067 65.9264 42.313 66.4012 42.6098 66.6902L43.6562 65.6155ZM49.4223 73.3235C49.7191 73.6125 50.1939 73.6062 50.4829 73.3094C50.7718 73.0126 50.7655 72.5378 50.4687 72.2488L49.4223 73.3235ZM50.4687 73.3235C50.7655 73.0346 50.7718 72.5597 50.4829 72.263C50.1939 71.9662 49.7191 71.9599 49.4223 72.2488L50.4687 73.3235ZM42.6098 78.8822C42.313 79.1711 42.3067 79.646 42.5957 79.9427C42.8846 80.2395 43.3595 80.2458 43.6562 79.9569L42.6098 78.8822ZM58.333 72.032C57.9188 72.032 57.583 72.3678 57.583 72.782C57.583 73.1962 57.9188 73.532 58.333 73.532V72.032ZM59.133 72.782L59.1465 72.032H59.133V72.782ZM79.1663 53.4737L79.9162 53.4879C79.9163 53.4831 79.9163 53.4784 79.9163 53.4737H79.1663ZM79.1663 47.0362H79.9165L79.9162 47.0222L79.1663 47.0362ZM59.133 27.7237V28.4738L59.1465 28.4736L59.133 27.7237ZM50.0538 26.9737C49.6396 26.9737 49.3038 27.3095 49.3038 27.7237C49.3038 28.1379 49.6396 28.4737 50.0538 28.4737V26.9737ZM56.3431 34.8902C56.6399 35.1792 57.1147 35.1728 57.4037 34.8761C57.6927 34.5793 57.6863 34.1045 57.3896 33.8155L56.3431 34.8902ZM50.5771 27.1822C50.2803 26.8932 49.8055 26.8995 49.5165 27.1963C49.2275 27.4931 49.2339 27.9679 49.5306 28.2569L50.5771 27.1822ZM49.5306 27.1822C49.2339 27.4711 49.2275 27.946 49.5165 28.2427C49.8055 28.5395 50.2803 28.5458 50.5771 28.2569L49.5306 27.1822ZM57.3896 21.6235C57.6863 21.3346 57.6927 20.8597 57.4037 20.563C57.1147 20.2662 56.6399 20.2599 56.3431 20.5488L57.3896 21.6235ZM41.6663 26.9737H40.8663V28.4737H41.6663V26.9737ZM40.8798 26.9738C29.604 26.7713 20.2962 35.7423 20.0831 47.0178L21.5829 47.0462C21.7803 36.5983 30.4048 28.2859 40.8529 28.4736L40.8798 26.9738ZM20.083 47.032V53.4695H21.583V47.032H20.083ZM20.0831 53.4835C20.2938 64.7608 29.6024 73.7344 40.8798 73.5319L40.8529 72.0321C30.4033 72.2198 21.7781 63.9049 21.5829 53.4555L20.0831 53.4835ZM40.8663 73.532H49.9497V72.032H40.8663V73.532ZM42.6098 66.6902L49.4223 73.3235L50.4687 72.2488L43.6562 65.6155L42.6098 66.6902ZM49.4223 72.2488L42.6098 78.8822L43.6562 79.9569L50.4687 73.3235L49.4223 72.2488ZM58.333 73.532H59.133V72.032H58.333V73.532ZM59.1195 73.5319C70.3953 73.7344 79.7032 64.7634 79.9162 53.4879L78.4165 53.4595C78.2191 63.9074 69.5945 72.2198 59.1465 72.0321L59.1195 73.5319ZM79.9163 53.4737V47.0362H78.4163V53.4737H79.9163ZM79.9162 47.0222C79.7055 35.7449 70.397 26.7713 59.1195 26.9738L59.1465 28.4736C69.596 28.2859 78.2213 36.6008 78.4165 47.0502L79.9162 47.0222ZM59.133 26.9737H50.0538V28.4737H59.133V26.9737ZM57.3896 33.8155L50.5771 27.1822L49.5306 28.2569L56.3431 34.8902L57.3896 33.8155ZM50.5771 28.2569L57.3896 21.6235L56.3431 20.5488L49.5306 27.1822L50.5771 28.2569Z" fill="black"/>
</svg>
