<svg width="87" height="87" viewBox="0 0 87 87" fill="none" xmlns="http://www.w3.org/2000/svg">
<path fill-rule="evenodd" clip-rule="evenodd" d="M43.5002 26.5821C43.5002 31.2529 39.7138 35.0392 35.0431 35.0392C30.3723 35.0392 26.5859 31.2529 26.5859 26.5821C26.5859 21.9114 30.3723 18.125 35.0431 18.125C39.7138 18.125 43.5002 21.9114 43.5002 26.5821Z" stroke="black" stroke-width="1.5" stroke-linecap="round" stroke-linejoin="round"/>
<path fill-rule="evenodd" clip-rule="evenodd" d="M51.9571 57.0321C51.9571 63.5571 44.3845 68.875 35.0392 68.875C25.694 68.875 18.125 63.5716 18.125 57.0321C18.125 50.4926 25.6976 45.1929 35.0429 45.1929C44.3881 45.1929 51.9571 50.4926 51.9571 57.0321Z" stroke="black" stroke-width="1.5" stroke-linecap="round" stroke-linejoin="round"/>
<path fill-rule="evenodd" clip-rule="evenodd" d="M61.4039 34.4773C61.4039 37.2802 59.1318 39.5523 56.3289 39.5523C53.5261 39.5523 51.2539 37.2802 51.2539 34.4773C51.2539 31.6745 53.5261 29.4023 56.3289 29.4023C57.6749 29.4023 58.9657 29.937 59.9175 30.8888C60.8692 31.8405 61.4039 33.1314 61.4039 34.4773Z" stroke="black" stroke-width="1.5" stroke-linecap="round" stroke-linejoin="round"/>
<path d="M58.7246 65.493C63.8495 65.9138 68.3658 62.1491 68.8746 57.0322C68.3639 51.9168 63.8482 48.1542 58.7246 48.5751" stroke="black" stroke-width="1.5" stroke-linecap="round" stroke-linejoin="round"/>
</svg>
